<svg width="512" height="512" viewBox="0 0 512 512" fill="none" xmlns="http://www.w3.org/2000/svg">
  <!-- Background Circle -->
  <circle cx="256" cy="256" r="246" fill="#2563EB" opacity="0.1"/>
  
  <!-- Car Icon -->
  <path d="M416 224H96C78.3 224 64 238.3 64 256V384C64 392.8 71.16 400 80 400H144C152.8 400 160 392.8 160 384V352H352V384C352 392.8 359.2 400 368 400H432C440.8 400 448 392.8 448 384V256C448 238.3 433.7 224 416 224Z" fill="#2563EB"/>
  <path d="M120 296C131 296 140 287 140 276C140 265 131 256 120 256C109 256 100 265 100 276C100 287 109 296 120 296Z" fill="#1E40AF"/>
  <path d="M392 296C403 296 412 287 412 276C412 265 403 256 392 256C381 256 372 265 372 276C372 287 381 296 392 296Z" fill="#1E40AF"/>
  <path d="M448 224H64C46.33 224 32 238.3 32 256V272C32 289.7 46.33 304 64 304H448C465.7 304 480 289.7 480 272V256C480 238.3 465.7 224 448 224Z" fill="#3B82F6"/>
  <path d="M112 224L132.2 149.4C136.1 133.6 150.2 122.7 166.4 122.7H185.6C201.8 122.7 215.9 133.6 219.8 149.4L224 176H288L292.2 149.4C296.1 133.6 310.2 122.7 326.4 122.7H345.6C361.8 122.7 375.9 133.6 379.8 149.4L400 224H112Z" fill="#2563EB"/>
  
  <!-- App Name -->
  <text x="256" y="440" font-family="Arial, sans-serif" font-size="40" font-weight="bold" text-anchor="middle" fill="#1F2937">CarSource</text>
</svg>
